<?xml version="1.0" encoding="utf-8"?>
<!-- Generator: Adobe Illustrator 21.1.0, SVG Export Plug-In . SVG Version: 6.00 Build 0)  -->
<svg version="1.1" id="Layer_1" xmlns="http://www.w3.org/2000/svg" xmlns:xlink="http://www.w3.org/1999/xlink" x="0px" y="0px"
	 viewBox="0 0 1600 400" style="enable-background:new 0 0 1600 400;" xml:space="preserve">
<style type="text/css">
	.st0{fill:#FFDC97;}
	.st1{fill:#876041;}
	.st2{fill:#F9B318;}
	.st3{fill:#FEC764;}
	.st4{fill:#BA8C8C;stroke:#000000;stroke-miterlimit:10;}
</style>
<rect x="-14.4" y="-27.9" class="st0" width="1663.4" height="453"/>
<path class="st1" d="M-173,372c-25.7,2.9,384.8-51,469-61c51.4-6.1,392-18,483-69c71.4-40,541.6-79.4,541.6-79.4l-1305,456L-173,372
	z"/>
<path class="st2" d="M-72,367c0,0,350.3-31.7,555-44c133-8,307-6,393-80c40.2-34.6,444.6-80.4,444.6-80.4L611.1,740.1L-72,367z"/>
<path class="st3" d="M-38.4,387.6c0,0,1027.9-53.9,1142.4-67.6c112.5-13.5-60.3-65.7-35-84c43.5-31.5,251.6-73.4,251.6-73.4
	S1510,215,1666,290s146.3,364,146.3,364L76.6,643.3L-38.4,387.6z"/>
<path class="st4" d="M932.1,542.1"/>
<g id="jT0FaN.tif">
	
		<image style="overflow:visible;enable-background:new    ;" width="475" height="664" id="Layer_0_1_" xlink:href="AE0FB51FB7DCF3CF.png"  transform="matrix(0.9979 0 0 0.9985 1796.9417 -185.4935)">
	</image>
</g>
</svg>
